<?xml version="1.0" encoding="utf-8"?>
<!-- Generator: Adobe Illustrator 25.4.1, SVG Export Plug-In . SVG Version: 6.00 Build 0)  -->
<svg version="1.1" id="Layer_1" xmlns="http://www.w3.org/2000/svg" xmlns:xlink="http://www.w3.org/1999/xlink" x="0px" y="0px"
	 viewBox="0 0 1061.67 2110.04" style="enable-background:new 0 0 1061.67 2110.04;" xml:space="preserve">

<g id="Layer_2_00000176004350647947550800000009161766956037446325_">
</g>
<g>
	<path class="st0" d="M906.43,679.22L274.28,47.07c-62.71-62.76-164.5-62.76-227.21,0c-62.76,62.71-62.76,164.5,0,227.21
		l632.15,632.15c39.41,39.44,61.09,92.16,61.09,148.6s-21.68,109.16-61.09,148.6L47.07,1835.76c-62.76,62.71-62.76,164.5,0,227.21
		c31.36,31.38,72.49,47.07,113.6,47.07s82.25-15.69,113.6-47.07l632.15-632.15c100.11-100.06,155.24-233.54,155.24-375.8
		S1006.54,779.28,906.43,679.22z"/>
</g>
</svg>
