<?xml version="1.0" encoding="utf-8"?>
<!-- Generator: Adobe Illustrator 25.4.1, SVG Export Plug-In . SVG Version: 6.00 Build 0)  -->
<svg version="1.1" id="Layer_1" xmlns="http://www.w3.org/2000/svg" xmlns:xlink="http://www.w3.org/1999/xlink" x="0px" y="0px"
	 viewBox="0 0 1061.67 2110.04" style="enable-background:new 0 0 1061.67 2110.04;" xml:space="preserve">

<g id="Layer_2_00000176004350647947550800000009161766956037446325_">
</g>
<g>
	<path class="st0" d="M0,1055.02c0,142.26,55.13,275.74,155.24,375.8l632.15,632.15c31.35,31.38,72.49,47.07,113.6,47.07
		c41.11,0,82.24-15.69,113.6-47.07c62.76-62.71,62.76-164.5,0-227.21l-632.15-632.13c-39.41-39.44-61.09-92.16-61.09-148.6
		s21.68-109.16,61.09-148.6l632.15-632.15c62.76-62.71,62.76-164.5,0-227.21c-62.71-62.76-164.5-62.76-227.21,0L155.23,679.22
		C55.12,779.28,0,912.76,0,1055.02z"/>
</g>
</svg>
