<?xml version="1.0" encoding="utf-8"?>
<!-- Generator: Adobe Illustrator 25.4.1, SVG Export Plug-In . SVG Version: 6.00 Build 0)  -->
<svg version="1.1" id="Layer_1" xmlns="http://www.w3.org/2000/svg" xmlns:xlink="http://www.w3.org/1999/xlink" x="0px" y="0px"
	 viewBox="0 0 23.9 17.1" style="enable-background:new 0 0 23.9 17.1;" xml:space="preserve">

<g>
	<g>
		<g>
			<path class="st3" d="M1.4,17.1c-0.8,0-1.4-0.6-1.4-1.4L0,1.4C0,0.6,0.6,0,1.4,0h21c0.8,0,1.4,0.6,1.4,1.4v14.2
				c0,0.4-0.1,0.7-0.4,1c-0.3,0.3-0.6,0.4-1,0.4c0,0,0,0,0,0L1.4,17.1z M1.4,0.5c-0.5,0-0.9,0.4-0.9,0.9l0,14.2
				c0,0.5,0.4,0.9,0.9,0.9l21,0c0.3,0,0.5-0.1,0.7-0.3c0.2-0.2,0.3-0.4,0.3-0.7V1.4c0-0.5-0.4-0.9-0.9-0.9H1.4z"/>
		</g>
		<g>
			<g>
				<g>
					<path class="st3" d="M8.8,6.4H3.2c-0.4,0-0.7-0.3-0.7-0.7V3.1c0-0.4,0.3-0.7,0.7-0.7h5.5c0.4,0,0.7,0.3,0.7,0.7v2.6
						C9.5,6.1,9.2,6.4,8.8,6.4z M3.2,2.9C3.1,2.9,3,3,3,3.1v2.6c0,0.1,0.1,0.2,0.2,0.2h5.5C8.9,5.9,9,5.8,9,5.7V3.1
						C9,3,8.9,2.9,8.8,2.9H3.2z"/>
				</g>
				<g>
					<g>
						<path class="st3" d="M8.8,11.2H3.2c-0.4,0-0.7-0.3-0.7-0.7V9.6c0-0.4,0.3-0.7,0.7-0.7h5.5c0.4,0,0.7,0.3,0.7,0.7v0.8
							C9.5,10.8,9.2,11.2,8.8,11.2z M3.2,9.4C3.1,9.4,3,9.5,3,9.6v0.8c0,0.1,0.1,0.2,0.2,0.2h5.5c0.1,0,0.2-0.1,0.2-0.2V9.6
							c0-0.1-0.1-0.2-0.2-0.2H3.2z"/>
					</g>
					<g>
						<path class="st3" d="M14.7,11.2h-3.8c-0.4,0-0.7-0.3-0.7-0.7V9.6c0-0.4,0.3-0.7,0.7-0.7h3.8c0.4,0,0.7,0.3,0.7,0.7v0.8
							C15.4,10.8,15.1,11.2,14.7,11.2z M10.9,9.4c-0.1,0-0.2,0.1-0.2,0.2v0.8c0,0.1,0.1,0.2,0.2,0.2h3.8c0.1,0,0.2-0.1,0.2-0.2V9.6
							c0-0.1-0.1-0.2-0.2-0.2H10.9z"/>
					</g>
					<g>
						<path class="st3" d="M20.6,11.2h-3.8c-0.4,0-0.7-0.3-0.7-0.7V9.6c0-0.4,0.3-0.7,0.7-0.7h3.8c0.4,0,0.7,0.3,0.7,0.7v0.8
							C21.4,10.8,21,11.2,20.6,11.2z M16.9,9.4c-0.1,0-0.2,0.1-0.2,0.2v0.8c0,0.1,0.1,0.2,0.2,0.2h3.8c0.1,0,0.2-0.1,0.2-0.2V9.6
							c0-0.1-0.1-0.2-0.2-0.2H16.9z"/>
					</g>
				</g>
				<g>
					<path class="st3" d="M13.5,14.7H3.2c-0.4,0-0.7-0.3-0.7-0.7v-0.8c0-0.4,0.3-0.7,0.7-0.7h10.3c0.4,0,0.7,0.3,0.7,0.7V14
						C14.2,14.4,13.9,14.7,13.5,14.7z M3.2,12.9C3.1,12.9,3,13,3,13.2V14c0,0.1,0.1,0.2,0.2,0.2h10.3c0.1,0,0.2-0.1,0.2-0.2v-0.8
						c0-0.1-0.1-0.2-0.2-0.2H3.2z"/>
				</g>
			</g>
		</g>
	</g>
</g>
</svg>
