<?xml version="1.0" encoding="utf-8"?>
<!-- Generator: Adobe Illustrator 25.4.1, SVG Export Plug-In . SVG Version: 6.00 Build 0)  -->
<svg version="1.1" id="Layer_1" xmlns="http://www.w3.org/2000/svg" xmlns:xlink="http://www.w3.org/1999/xlink" x="0px" y="0px"
	 viewBox="0 0 24 17.3" style="enable-background:new 0 0 24 17.3;" xml:space="preserve">

<g>
	<g>
		<g>
			<g id="Wallet_00000042711619204415352310000015184006587694862736_">
				<g id="Wallet_with_cards_00000120523101061495351240000013932996631263110801_">
					<g id="Wallet_00000170999296990763400610000002533127940715182223_">
						<g id="Body_00000085220559218492149110000005127902552355370393_">
							<g>
								<path class="st3" d="M20.1,17.3H2.9C1.3,17.3,0,16,0,14.4V2.9C0,1.4,1.1,0.2,2.6,0c0.1,0,0.2,0,0.3,0h11c0,0,0,0,0,0h6.2
									c0.6,0,1.1,0.2,1.6,0.5C22.5,1,23,1.9,23,2.9v3.6c0,0.1,0,0.1-0.1,0.2c0,0-0.1,0.1-0.2,0.1c0,0,0,0-0.1,0H18
									c-0.9,0-1.7,0.8-1.7,1.7v0.3c0,0.9,0.8,1.7,1.7,1.7h4.7c0,0,0,0,0.1,0c0.1,0,0.1,0,0.2,0.1c0.1,0,0.1,0.1,0.1,0.2v3.6
									c0,0.8-0.3,1.5-0.8,2C21.6,17,20.9,17.3,20.1,17.3z M2.9,0.5c-0.1,0-0.2,0-0.3,0C1.4,0.6,0.5,1.7,0.5,2.9v11.5
									c0,1.3,1.1,2.4,2.4,2.4h17.2c0.7,0,1.3-0.3,1.7-0.7c0.5-0.5,0.7-1.1,0.7-1.7V11H18c-1.2,0-2.2-1-2.2-2.2V8.5
									c0-1.2,1-2.2,2.2-2.2h4.5V2.9c0-0.8-0.4-1.6-1.1-2c-0.4-0.3-0.9-0.4-1.3-0.4H14c-0.1,0-0.1,0-0.2,0H2.9z"/>
							</g>
							<g>
								<path class="st3" d="M13.9,0.5c0,0-0.1,0-0.1,0c-0.1-0.1-0.2-0.2-0.1-0.3c0-0.1,0.1-0.2,0.2-0.2c0.1,0,0.2,0.1,0.2,0.1
									c0,0.1,0,0.2,0,0.2l0,0C14.1,0.5,14,0.5,13.9,0.5z"/>
							</g>
							<g>
								<path class="st3" d="M18.3,9.7c-0.5,0-1-0.4-1-1c0-0.5,0.4-1,1-1c0.5,0,1,0.4,1,1C19.2,9.2,18.8,9.7,18.3,9.7z M18.3,8.2
									c-0.3,0-0.5,0.2-0.5,0.5s0.2,0.5,0.5,0.5c0.3,0,0.5-0.2,0.5-0.5S18.5,8.2,18.3,8.2z"/>
							</g>
						</g>
						<g id="Clasp_00000014632366429716327400000006391053218029992360_">
							<g>
								<path class="st3" d="M22.7,11H18c-1.2,0-2.2-1-2.2-2.2V8.5c0-1.2,1-2.2,2.2-2.2h4.7c0,0,0.1,0,0.1,0C23.5,6.4,24,6.9,24,7.6
									v2c0,0.7-0.5,1.3-1.2,1.3C22.8,11,22.7,11,22.7,11z M18,6.8c-0.9,0-1.7,0.8-1.7,1.7v0.3c0,0.9,0.8,1.7,1.7,1.7h4.7
									c0,0,0,0,0.1,0c0.4,0,0.8-0.4,0.8-0.9v-2c0-0.4-0.3-0.8-0.8-0.8c0,0,0,0,0,0c0,0,0,0-0.1,0H18z M18.3,9.7c-0.5,0-1-0.4-1-1
									c0-0.5,0.4-1,1-1c0.5,0,1,0.4,1,1C19.2,9.2,18.8,9.7,18.3,9.7z M18.3,8.2c-0.3,0-0.5,0.2-0.5,0.5s0.2,0.5,0.5,0.5
									c0.3,0,0.5-0.2,0.5-0.5S18.5,8.2,18.3,8.2z"/>
							</g>
							<g>
								<path class="st3" d="M18.3,9.7c-0.5,0-1-0.4-1-1c0-0.5,0.4-1,1-1c0.5,0,1,0.4,1,1C19.2,9.2,18.8,9.7,18.3,9.7z M18.3,8.2
									c-0.3,0-0.5,0.2-0.5,0.5s0.2,0.5,0.5,0.5c0.3,0,0.5-0.2,0.5-0.5S18.5,8.2,18.3,8.2z"/>
							</g>
							<g>
								<path class="st3" d="M18.3,9.7c-0.5,0-1-0.4-1-1c0-0.5,0.4-1,1-1c0.5,0,1,0.4,1,1C19.2,9.2,18.8,9.7,18.3,9.7z M18.3,8.2
									c-0.3,0-0.5,0.2-0.5,0.5s0.2,0.5,0.5,0.5c0.3,0,0.5-0.2,0.5-0.5S18.5,8.2,18.3,8.2z"/>
							</g>
							<g id="Line_00000161607803275511132090000010320011775846149813_">
								<path class="st3" d="M23.7,8.9h-0.9c-0.1,0-0.2-0.1-0.2-0.2c0-0.1,0.1-0.2,0.2-0.2h0.9c0.1,0,0.2,0.1,0.2,0.2
									C24,8.8,23.9,8.9,23.7,8.9z"/>
							</g>
						</g>
					</g>
				</g>
			</g>
		</g>
	</g>
</g>
</svg>
