<?xml version="1.0" encoding="utf-8"?>
<!-- Generator: Adobe Illustrator 25.4.1, SVG Export Plug-In . SVG Version: 6.00 Build 0)  -->
<svg version="1.1" xmlns="http://www.w3.org/2000/svg" xmlns:xlink="http://www.w3.org/1999/xlink" x="0px" y="0px"
	 viewBox="0 0 20.28 20.32" style="enable-background:new 0 0 20.28 20.32;" xml:space="preserve">

<g id="Layer_1">
</g>
<g id="Layer_2">
</g>
<g id="Layer_3">
	<g>
		<g>
			<path class="st1" d="M18.06,20.32c-0.17,0-0.33-0.02-0.5-0.06c-8.63-2.02-15.5-8.9-17.5-17.54c-0.15-0.66,0-1.34,0.43-1.87
				C0.92,0.31,1.56,0,2.25,0h2.42c0.98,0,1.84,0.63,2.14,1.56L7.5,3.71c0.26,0.81,0.05,1.68-0.55,2.28C6.31,6.63,6.22,7.64,6.74,8.4
				c0.69,1.01,1.48,1.97,2.35,2.84c0.86,0.87,1.82,1.66,2.84,2.34c0.76,0.51,1.77,0.42,2.41-0.22c0.59-0.59,1.46-0.81,2.26-0.55
				l2.12,0.67c0.94,0.3,1.57,1.16,1.57,2.14v2.44c0,0.69-0.31,1.34-0.86,1.77C19.03,20.15,18.55,20.32,18.06,20.32z M2.25,0.36
				c-0.58,0-1.12,0.26-1.49,0.72C0.41,1.52,0.28,2.09,0.41,2.64c1.97,8.5,8.73,15.28,17.23,17.27c0.55,0.13,1.12,0,1.57-0.36
				c0.46-0.36,0.72-0.91,0.72-1.49v-2.44c0-0.83-0.53-1.55-1.32-1.8l-2.12-0.67c-0.67-0.21-1.4-0.03-1.9,0.46
				c-0.76,0.76-1.96,0.87-2.86,0.26c-1.04-0.7-2.01-1.5-2.89-2.39C7.94,10.61,7.14,9.63,6.44,8.6C5.83,7.7,5.94,6.49,6.7,5.73
				C7.2,5.23,7.38,4.49,7.16,3.82L6.47,1.67c-0.25-0.78-0.97-1.31-1.8-1.31H2.25z"/>
		</g>
	</g>
</g>
<g id="Layer_4">
</g>
<g id="Layer_5">
</g>
<g id="Layer_6">
</g>
<g id="Layer_7">
</g>
<g id="Layer_8">
</g>
<g id="Layer_9">
</g>
<g id="Layer_10">
</g>
</svg>
