<?xml version="1.0" encoding="utf-8"?>
<!-- Generator: Adobe Illustrator 25.4.1, SVG Export Plug-In . SVG Version: 6.00 Build 0)  -->
<svg version="1.1" id="Layer_1" xmlns="http://www.w3.org/2000/svg" xmlns:xlink="http://www.w3.org/1999/xlink" x="0px" y="0px"
	 viewBox="0 0 55.21 67.43" style="enable-background:new 0 0 55.21 67.43;" xml:space="preserve">

<g>
	<g>
		<path class="st0" d="M51.02,19.26H38.21V4.13c0-2.28-1.85-4.13-4.13-4.13H21.16c-2.28,0-4.13,1.85-4.13,4.13v15.12H4.19
			C1.88,19.26,0,21.14,0,23.45v39.79c0,2.31,1.88,4.19,4.19,4.19h46.83c2.31,0,4.19-1.88,4.19-4.19V23.45
			C55.21,21.14,53.33,19.26,51.02,19.26z M18.26,4.13c0-1.6,1.31-2.91,2.91-2.91h12.91c1.6,0,2.91,1.3,2.91,2.91v15.12H18.26V4.13z
			 M53.98,63.24c0,1.64-1.33,2.97-2.97,2.97H4.19c-1.64,0-2.97-1.33-2.97-2.97V23.45c0-1.64,1.33-2.97,2.97-2.97h46.83
			c1.64,0,2.97,1.33,2.97,2.97V63.24z"/>
		<path class="st0" d="M34.62,37.96c0-3.86-3.15-7.01-7.01-7.01c-3.87,0-7.01,3.15-7.01,7.01c0,2.11,0.92,4.05,2.52,5.39l-1.17,9.69
			c-0.02,0.17,0.03,0.35,0.15,0.48c0.12,0.13,0.28,0.21,0.46,0.21h10.1c0.18,0,0.34-0.08,0.46-0.21c0.12-0.13,0.17-0.31,0.15-0.48
			l-1.17-9.69C33.7,42.01,34.62,40.07,34.62,37.96z M31.96,52.5h-8.72l1.13-9.34c0.03-0.22-0.06-0.43-0.24-0.56
			c-1.47-1.11-2.32-2.8-2.32-4.63c0-3.19,2.6-5.78,5.79-5.78s5.78,2.59,5.78,5.78c0,1.84-0.84,3.52-2.32,4.63
			c-0.17,0.13-0.27,0.35-0.24,0.56L31.96,52.5z"/>
	</g>
</g>
</svg>
