<?xml version="1.0" encoding="utf-8"?>
<!-- Generator: Adobe Illustrator 25.4.1, SVG Export Plug-In . SVG Version: 6.00 Build 0)  -->
<svg version="1.1" id="Layer_1" xmlns="http://www.w3.org/2000/svg" xmlns:xlink="http://www.w3.org/1999/xlink" x="0px" y="0px"
	 viewBox="0 0 535.13 536.02" style="enable-background:new 0 0 535.13 536.02;" xml:space="preserve">
<style type="text/css">
	.st0{fill:none;stroke:#000000;stroke-miterlimit:10;}
	.st1{fill:none;stroke:#000000;stroke-linecap:round;stroke-miterlimit:10;}
	.st2{fill:none;stroke:#000000;}
	.st3{fill:none;stroke:#1D1D1B;stroke-linecap:round;stroke-miterlimit:10;}
	.st4{fill:#1D1D1B;}
	.st5{fill:none;stroke:#000000;stroke-width:0.75;stroke-linecap:round;stroke-miterlimit:10;}
	.st6{fill:none;stroke:#000000;stroke-width:0.75;stroke-linecap:round;stroke-linejoin:round;stroke-miterlimit:10;}
	.st7{fill:none;stroke:#1D1D1B;stroke-miterlimit:10;}
	.st8{fill:none;stroke:#000000;stroke-width:0.5;stroke-linecap:round;stroke-miterlimit:10;}
	.st9{opacity:0.32;}
	.st10{fill:none;stroke:#1D1D1B;stroke-width:0.5;stroke-miterlimit:10;}
	.st11{fill:none;stroke:#000000;stroke-width:0.5;stroke-miterlimit:10;}
	.st12{fill:none;stroke:#000000;stroke-linecap:round;stroke-linejoin:round;stroke-miterlimit:10;}
	.st13{fill:none;stroke:#1D1D1B;stroke-width:0.75;stroke-miterlimit:10;}
	.st14{fill:none;stroke:#1D1D1B;stroke-width:0.25;stroke-miterlimit:10;}
	.st15{fill:none;stroke:#000000;stroke-width:0.25;stroke-miterlimit:10;}
	.st16{fill:none;stroke:#000000;stroke-width:0.75;stroke-miterlimit:10;}
	.st17{fill:none;stroke:#000000;stroke-width:0.5;stroke-linecap:round;stroke-linejoin:round;stroke-miterlimit:10;}
	.st18{opacity:0.34;}
	.st19{fill:none;stroke:#000000;stroke-linejoin:round;stroke-miterlimit:10;}
	.st20{opacity:0.35;}
	.st21{fill:none;stroke:#1D1D1B;stroke-linecap:round;stroke-linejoin:round;stroke-miterlimit:10;}
	.st22{fill:none;stroke:#000000;stroke-linejoin:round;stroke-miterlimit:9.9996;}
	.st23{enable-background:new    ;}
	.st24{clip-path:url(#SVGID_00000013182378788690827500000006568110146796734628_);}
	.st25{clip-path:url(#SVGID_00000107569026871453628960000003154620493609934233_);fill:none;stroke:#272425;stroke-miterlimit:10;}
	.st26{fill:none;stroke:#272425;stroke-miterlimit:10;}
	.st27{fill:none;stroke:#272425;stroke-linecap:round;stroke-miterlimit:10;}
	.st28{fill:#272425;}
	.st29{fill:none;stroke:#660000;stroke-miterlimit:10;}
	.st30{fill:none;stroke:#000000;stroke-width:0.25;stroke-linecap:round;stroke-miterlimit:10;}
	.st31{stroke:#000000;stroke-miterlimit:10;}
	.st32{fill:none;stroke:#000000;stroke-linecap:round;stroke-linejoin:round;}
	.st33{fill:#FFFFFF;}
	.st34{fill:#AF4E37;}
</style>
<g>
	<path class="st33" d="M160.7,130.63c0-2.14,1.72-3.86,3.8-3.86h106.86c2.14,0,3.8,1.72,3.8,3.86c0,2.08-1.66,3.8-3.8,3.8H164.5
		C162.42,134.43,160.7,132.71,160.7,130.63z"/>
	<path class="st33" d="M160.7,359.62c0-2.14,1.72-3.8,3.8-3.8h145.04c2.14,0,3.8,1.66,3.8,3.8c0,2.08-1.66,3.8-3.8,3.8H164.5
		C162.42,363.42,160.7,361.7,160.7,359.62z"/>
	<path class="st33" d="M160.7,268.01c0-2.14,1.72-3.8,3.8-3.8h145.04c2.14,0,3.8,1.66,3.8,3.8c0,2.08-1.66,3.8-3.8,3.8H164.5
		C162.42,271.81,160.7,270.09,160.7,268.01z"/>
	<path class="st33" d="M160.7,176.4c0-2.08,1.72-3.8,3.8-3.8h145.04c2.14,0,3.8,1.72,3.8,3.8c0,2.14-1.66,3.8-3.8,3.8H164.5
		C162.42,180.2,160.7,178.54,160.7,176.4z"/>
	<path class="st33" d="M336.26,405.39c0,2.14-1.72,3.86-3.8,3.86H164.5c-2.08,0-3.8-1.72-3.8-3.86c0-2.08,1.72-3.8,3.8-3.8h167.96
		C334.53,401.59,336.26,403.31,336.26,405.39z"/>
	<path class="st33" d="M351.51,313.78c0,2.14-1.72,3.86-3.8,3.86H164.5c-2.08,0-3.8-1.72-3.8-3.86c0-2.08,1.72-3.8,3.8-3.8h183.21
		C349.79,309.98,351.51,311.71,351.51,313.78z"/>
	<path class="st33" d="M160.7,222.24c0-2.14,1.72-3.86,3.8-3.86h183.21c2.08,0,3.8,1.72,3.8,3.86c0,2.08-1.72,3.8-3.8,3.8H164.5
		C162.42,226.04,160.7,224.31,160.7,222.24z"/>
	<g>
		<path class="st33" d="M385.89,54.28H149.24c-14.72,0-26.72,11.99-26.72,26.72v374.03c0,14.72,11.99,26.72,26.72,26.72h236.65
			c14.72,0,26.72-11.99,26.72-26.72V81C412.6,66.27,400.61,54.28,385.89,54.28z M164.5,401.59h167.96c2.08,0,3.8,1.72,3.8,3.8
			c0,2.14-1.72,3.86-3.8,3.86H164.5c-2.08,0-3.8-1.72-3.8-3.86C160.7,403.31,162.42,401.59,164.5,401.59z M160.7,359.62
			c0-2.14,1.72-3.8,3.8-3.8h145.04c2.14,0,3.8,1.66,3.8,3.8c0,2.08-1.66,3.8-3.8,3.8H164.5C162.42,363.42,160.7,361.7,160.7,359.62z
			 M164.5,317.64c-2.08,0-3.8-1.72-3.8-3.86c0-2.08,1.72-3.8,3.8-3.8h183.21c2.08,0,3.8,1.72,3.8,3.8c0,2.14-1.72,3.86-3.8,3.86
			H164.5z M160.7,268.01c0-2.14,1.72-3.8,3.8-3.8h145.04c2.14,0,3.8,1.66,3.8,3.8c0,2.08-1.66,3.8-3.8,3.8H164.5
			C162.42,271.81,160.7,270.09,160.7,268.01z M347.71,226.04H164.5c-2.08,0-3.8-1.72-3.8-3.8c0-2.14,1.72-3.86,3.8-3.86h183.21
			c2.08,0,3.8,1.72,3.8,3.86C351.51,224.31,349.79,226.04,347.71,226.04z M164.5,172.6h145.04c2.14,0,3.8,1.72,3.8,3.8
			c0,2.14-1.66,3.8-3.8,3.8H164.5c-2.08,0-3.8-1.66-3.8-3.8C160.7,174.32,162.42,172.6,164.5,172.6z M160.7,130.63
			c0-2.14,1.72-3.86,3.8-3.86h106.86c2.14,0,3.8,1.72,3.8,3.86c0,2.08-1.66,3.8-3.8,3.8H164.5
			C162.42,134.43,160.7,132.71,160.7,130.63z"/>
		<path class="st34" d="M275.16,130.63c0,2.08-1.66,3.8-3.8,3.8H164.5c-2.08,0-3.8-1.72-3.8-3.8c0-2.14,1.72-3.86,3.8-3.86h106.86
			C273.5,126.77,275.16,128.49,275.16,130.63z"/>
		<path class="st34" d="M313.34,176.4c0,2.14-1.66,3.8-3.8,3.8H164.5c-2.08,0-3.8-1.66-3.8-3.8c0-2.08,1.72-3.8,3.8-3.8h145.04
			C311.68,172.6,313.34,174.32,313.34,176.4z"/>
		<path class="st34" d="M351.51,222.24c0,2.08-1.72,3.8-3.8,3.8H164.5c-2.08,0-3.8-1.72-3.8-3.8c0-2.14,1.72-3.86,3.8-3.86h183.21
			C349.79,218.38,351.51,220.1,351.51,222.24z"/>
		<path class="st34" d="M313.34,268.01c0,2.08-1.66,3.8-3.8,3.8H164.5c-2.08,0-3.8-1.72-3.8-3.8c0-2.14,1.72-3.8,3.8-3.8h145.04
			C311.68,264.21,313.34,265.87,313.34,268.01z"/>
		<path class="st34" d="M351.51,313.78c0,2.14-1.72,3.86-3.8,3.86H164.5c-2.08,0-3.8-1.72-3.8-3.86c0-2.08,1.72-3.8,3.8-3.8h183.21
			C349.79,309.98,351.51,311.71,351.51,313.78z"/>
		<path class="st34" d="M313.34,359.62c0,2.08-1.66,3.8-3.8,3.8H164.5c-2.08,0-3.8-1.72-3.8-3.8c0-2.14,1.72-3.8,3.8-3.8h145.04
			C311.68,355.82,313.34,357.48,313.34,359.62z"/>
		<path class="st34" d="M336.26,405.39c0,2.14-1.72,3.86-3.8,3.86H164.5c-2.08,0-3.8-1.72-3.8-3.86c0-2.08,1.72-3.8,3.8-3.8h167.96
			C334.53,401.59,336.26,403.31,336.26,405.39z"/>
	</g>
</g>
</svg>
