<?xml version="1.0" encoding="utf-8"?>
<!-- Generator: Adobe Illustrator 25.4.1, SVG Export Plug-In . SVG Version: 6.00 Build 0)  -->
<svg version="1.1" id="Layer_1" xmlns="http://www.w3.org/2000/svg" xmlns:xlink="http://www.w3.org/1999/xlink" x="0px" y="0px"
	 viewBox="0 0 1080 1080" style="enable-background:new 0 0 1080 1080;" xml:space="preserve">

<path class="st1" d="M893.86,762.75L724.69,593.57c58.25-114.59,36.66-255.44-55-347.09c-60.06-60.06-143.14-91.88-227.99-87.23
	c-85.99,4.68-163.31,44.57-217.71,112.3c-85.18,105.91-86.85,260.79-3.98,368.24c58.69,76.22,148.42,117.37,239.27,117.37
	c45.74,0,91.75-10.57,134.24-32.23L762.6,894.01c17.53,17.53,40.85,27.19,65.67,27.19s48.14-9.65,65.67-27.19
	C930.1,857.85,930.07,798.96,893.86,762.75z M248.08,618.16c-73-94.66-71.52-231.08,3.54-324.4c48-59.78,116.2-94.98,192-99.11
	c4.78-0.26,9.55-0.39,14.31-0.39c69.77,0,137.13,27.73,186.69,77.28c83.66,83.66,101.34,213.89,42.98,316.69
	c-2.93,5.17-6.03,10.23-9.31,15.18c-9.81,14.86-21.12,28.72-33.76,41.35c-7.07,7.07-14.59,13.61-22.37,19.81
	c-10.79,8.59-22.14,16.42-34.12,23.19C472.74,753.43,329.73,724.18,248.08,618.16z M868.88,868.95
	c-10.84,10.84-25.26,16.8-40.61,16.8c-15.35,0-29.77-5.97-40.61-16.8L625.18,706.46c0.99-0.67,1.9-1.47,2.88-2.15
	c5.85-4.04,11.54-8.3,17.09-12.76c1.8-1.45,3.6-2.89,5.38-4.39c6.56-5.52,12.98-11.23,19.07-17.32v-0.01
	c6.09-6.09,11.8-12.51,17.33-19.08c1.49-1.77,2.93-3.56,4.37-5.36c4.54-5.66,8.89-11.46,13.01-17.43c0.63-0.91,1.36-1.74,1.98-2.65
	L868.8,787.82C891.18,810.21,891.22,846.6,868.88,868.95z"/>
</svg>
