<?xml version="1.0" encoding="utf-8"?>
<!-- Generator: Adobe Illustrator 25.4.1, SVG Export Plug-In . SVG Version: 6.00 Build 0)  -->
<svg version="1.1" id="Layer_1" xmlns="http://www.w3.org/2000/svg" xmlns:xlink="http://www.w3.org/1999/xlink" x="0px" y="0px"
	 viewBox="0 0 535.13 536.02" style="enable-background:new 0 0 535.13 536.02;" xml:space="preserve">
<style type="text/css">
	.st0{fill:none;stroke:#000000;stroke-miterlimit:10;}
	.st1{fill:none;stroke:#000000;stroke-linecap:round;stroke-miterlimit:10;}
	.st2{fill:none;stroke:#000000;}
	.st3{fill:none;stroke:#1D1D1B;stroke-linecap:round;stroke-miterlimit:10;}
	.st4{fill:#1D1D1B;}
	.st5{fill:none;stroke:#000000;stroke-width:0.75;stroke-linecap:round;stroke-miterlimit:10;}
	.st6{fill:none;stroke:#000000;stroke-width:0.75;stroke-linecap:round;stroke-linejoin:round;stroke-miterlimit:10;}
	.st7{fill:none;stroke:#1D1D1B;stroke-miterlimit:10;}
	.st8{fill:none;stroke:#000000;stroke-width:0.5;stroke-linecap:round;stroke-miterlimit:10;}
	.st9{opacity:0.32;}
	.st10{fill:none;stroke:#1D1D1B;stroke-width:0.5;stroke-miterlimit:10;}
	.st11{fill:none;stroke:#000000;stroke-width:0.5;stroke-miterlimit:10;}
	.st12{fill:none;stroke:#000000;stroke-linecap:round;stroke-linejoin:round;stroke-miterlimit:10;}
	.st13{fill:none;stroke:#1D1D1B;stroke-width:0.75;stroke-miterlimit:10;}
	.st14{fill:none;stroke:#1D1D1B;stroke-width:0.25;stroke-miterlimit:10;}
	.st15{fill:none;stroke:#000000;stroke-width:0.25;stroke-miterlimit:10;}
	.st16{fill:none;stroke:#000000;stroke-width:0.75;stroke-miterlimit:10;}
	.st17{fill:none;stroke:#000000;stroke-width:0.5;stroke-linecap:round;stroke-linejoin:round;stroke-miterlimit:10;}
	.st18{opacity:0.34;}
	.st19{fill:none;stroke:#000000;stroke-linejoin:round;stroke-miterlimit:10;}
	.st20{opacity:0.35;}
	.st21{fill:none;stroke:#1D1D1B;stroke-linecap:round;stroke-linejoin:round;stroke-miterlimit:10;}
	.st22{fill:none;stroke:#000000;stroke-linejoin:round;stroke-miterlimit:9.9996;}
	.st23{enable-background:new    ;}
	.st24{clip-path:url(#SVGID_00000052806071230488896250000014986551008323827371_);}
	.st25{clip-path:url(#SVGID_00000002353572105975995450000002782938671550121863_);fill:none;stroke:#272425;stroke-miterlimit:10;}
	.st26{fill:none;stroke:#272425;stroke-miterlimit:10;}
	.st27{fill:none;stroke:#272425;stroke-linecap:round;stroke-miterlimit:10;}
	.st28{fill:#272425;}
	.st29{fill:none;stroke:#660000;stroke-miterlimit:10;}
	.st30{fill:none;stroke:#000000;stroke-width:0.25;stroke-linecap:round;stroke-miterlimit:10;}
	.st31{stroke:#000000;stroke-miterlimit:10;}
	.st32{fill:none;stroke:#000000;stroke-linecap:round;stroke-linejoin:round;}
	.st33{fill:#FFFFFF;}
	.st34{fill:#AF4E37;}
</style>
<g>
	<path class="st33" d="M432.93,480.28c-3.49,0-6.99-0.4-10.46-1.2C242.14,436.93,98.62,293.1,56.83,112.67
		c-3.65-15.79,1.2-32.28,13.31-43.89c9.17-8.8,21.8-13.05,34.5-13.05l48.1,0c20.7,0,39.03,13.35,45.39,33.05l14.85,46.02
		c5.3,16.45-0.08,33.84-12.21,46.15c-13.23,13.43-15.07,34.49-4.37,50.25c14.36,21.18,30.87,41.15,49.08,59.36
		c18.05,18.19,38,34.66,59.28,48.95c15.83,10.63,36.95,8.69,50.26-4.61c12.43-12.42,30.56-16.85,47.29-11.54l43.86,13.85
		c19.84,6.27,33.33,24.68,33.33,45.49l0,48.76c0,12.3-4.01,24.53-12.35,33.58C457.98,474.99,445.61,480.28,432.93,480.28z"/>
</g>
</svg>
