<?xml version="1.0" encoding="utf-8"?>
<!-- Generator: Adobe Illustrator 25.4.1, SVG Export Plug-In . SVG Version: 6.00 Build 0)  -->
<svg version="1.1" id="Layer_1" xmlns="http://www.w3.org/2000/svg" xmlns:xlink="http://www.w3.org/1999/xlink" x="0px" y="0px"
	 viewBox="0 0 535.13 536.02" style="enable-background:new 0 0 535.13 536.02;" xml:space="preserve">
<style type="text/css">
	.st0{fill:none;stroke:#000000;stroke-miterlimit:10;}
	.st1{fill:none;stroke:#000000;stroke-linecap:round;stroke-miterlimit:10;}
	.st2{fill:none;stroke:#000000;}
	.st3{fill:none;stroke:#1D1D1B;stroke-linecap:round;stroke-miterlimit:10;}
	.st4{fill:#1D1D1B;}
	.st5{fill:none;stroke:#000000;stroke-width:0.75;stroke-linecap:round;stroke-miterlimit:10;}
	.st6{fill:none;stroke:#000000;stroke-width:0.75;stroke-linecap:round;stroke-linejoin:round;stroke-miterlimit:10;}
	.st7{fill:none;stroke:#1D1D1B;stroke-miterlimit:10;}
	.st8{fill:none;stroke:#000000;stroke-width:0.5;stroke-linecap:round;stroke-miterlimit:10;}
	.st9{opacity:0.32;}
	.st10{fill:none;stroke:#1D1D1B;stroke-width:0.5;stroke-miterlimit:10;}
	.st11{fill:none;stroke:#000000;stroke-width:0.5;stroke-miterlimit:10;}
	.st12{fill:none;stroke:#000000;stroke-linecap:round;stroke-linejoin:round;stroke-miterlimit:10;}
	.st13{fill:none;stroke:#1D1D1B;stroke-width:0.75;stroke-miterlimit:10;}
	.st14{fill:none;stroke:#1D1D1B;stroke-width:0.25;stroke-miterlimit:10;}
	.st15{fill:none;stroke:#000000;stroke-width:0.25;stroke-miterlimit:10;}
	.st16{fill:none;stroke:#000000;stroke-width:0.75;stroke-miterlimit:10;}
	.st17{fill:none;stroke:#000000;stroke-width:0.5;stroke-linecap:round;stroke-linejoin:round;stroke-miterlimit:10;}
	.st18{opacity:0.34;}
	.st19{fill:none;stroke:#000000;stroke-linejoin:round;stroke-miterlimit:10;}
	.st20{opacity:0.35;}
	.st21{fill:none;stroke:#1D1D1B;stroke-linecap:round;stroke-linejoin:round;stroke-miterlimit:10;}
	.st22{fill:none;stroke:#000000;stroke-linejoin:round;stroke-miterlimit:9.9996;}
	.st23{enable-background:new    ;}
	.st24{clip-path:url(#SVGID_00000059271152947487006920000017043566621120475292_);}
	.st25{clip-path:url(#SVGID_00000040550104803771206930000000702516315913730739_);fill:none;stroke:#272425;stroke-miterlimit:10;}
	.st26{fill:none;stroke:#272425;stroke-miterlimit:10;}
	.st27{fill:none;stroke:#272425;stroke-linecap:round;stroke-miterlimit:10;}
	.st28{fill:#272425;}
	.st29{fill:none;stroke:#660000;stroke-miterlimit:10;}
	.st30{fill:none;stroke:#000000;stroke-width:0.25;stroke-linecap:round;stroke-miterlimit:10;}
	.st31{stroke:#000000;stroke-miterlimit:10;}
	.st32{fill:none;stroke:#000000;stroke-linecap:round;stroke-linejoin:round;}
	.st33{fill:#FFFFFF;}
	.st34{fill:#AF4E37;}
</style>
<path class="st33" d="M349.98,289.69c-14.5-16.78-32.01-30.65-49.38-44.45c-20.12-15.98-39.79-32.29-55.69-52.63
	c-7.44-9.51-11.07-21.96-11.07-37.53c0.17-8.82,2.59-16.6,7.61-23.69c4.84-7.09,12.11-10.72,21.45-11.07
	c9.17-0.17,15.91,2.25,20.23,7.78c4.5,5.36,7.44,12.97,8.99,22.48c3.11,18.16,20.41,30.78,38.57,28.19l4.5-0.69
	c18.68-2.6,31.65-20.06,28.19-38.57c-0.35-1.21-0.52-2.42-0.69-3.63c-2.77-12.97-7.09-25.08-12.97-36.14
	c-6.05-10.9-14.87-20.06-26.46-27.33c-5.88-3.8-12.8-6.74-20.41-8.82c-3.81-1.04-7.44-2.77-10.55-5.19
	c-6.74-4.84-11.41-12.11-12.97-20.23c-3.63-2.42-8.13-3.63-12.8-3.63c-4.84,0-9.51,1.38-13.32,3.8c-1.73,7.78-6.05,14.7-12.28,19.54
	c-3.29,2.59-7.09,4.5-11.41,5.53c-19.2,4.67-35.28,13.32-48.08,25.77c-18.16,17.64-27.32,42.37-27.5,74.02
	c-0.17,16.6,2.08,30.96,6.57,43.06c4.5,12.28,10.55,23,18.33,32.51c6.27,7.84,12.99,15.28,20.27,22.19
	c29.86,28.39,65.46,49.65,91.1,82.44c7.44,9.51,11.07,21.96,11.07,37.53c-0.17,8.82-2.59,16.6-7.61,23.69
	c-4.84,7.09-12.11,10.72-21.44,11.07c-9.17,0.17-15.91-2.25-20.23-7.78c-4.5-5.36-7.44-12.97-8.99-22.48
	c-3.11-18.16-20.41-30.78-38.57-28.19l-4.5,0.69c-18.68,2.59-31.65,20.06-28.19,38.57c0.35,1.21,0.52,2.42,0.69,3.63
	c2.77,12.97,7.09,25.08,12.97,36.14c6.05,10.9,14.87,20.06,26.46,27.33c5.88,3.8,12.8,6.74,20.41,8.82
	c3.8,1.04,7.44,2.77,10.55,5.19c6.74,4.84,11.41,12.11,12.97,20.23c3.63,2.42,8.13,3.63,12.8,3.63c4.84,0,9.51-1.38,13.32-3.8
	c1.73-7.78,6.05-14.7,12.28-19.54c3.29-2.59,7.09-4.49,11.41-5.53c19.2-4.67,35.28-13.31,48.08-25.77
	c18.16-17.64,27.32-42.37,27.5-74.02C381.51,341.49,370.42,313.34,349.98,289.69z"/>
</svg>
