<?xml version="1.0" encoding="utf-8"?>
<!-- Generator: Adobe Illustrator 25.4.1, SVG Export Plug-In . SVG Version: 6.00 Build 0)  -->
<svg version="1.1" id="Layer_1" xmlns="http://www.w3.org/2000/svg" xmlns:xlink="http://www.w3.org/1999/xlink" x="0px" y="0px"
	 viewBox="0 0 1080 1080" style="enable-background:new 0 0 1080 1080;" xml:space="preserve">

<g>
	<path class="st0" d="M807.21,237.63H445.34c-37.05,0-67.19,30.14-67.19,67.19v125.99H207.73c-5.66-0.32-9.38-0.01-9.82,0.03
		l0.76,16.77h8.22c9.24,0.55,25.19,3.19,37.11,14.13c11,10.1,16.57,25.45,16.57,45.64v133.4c0,37.05,30.14,67.19,67.19,67.19h167.98
		v134.38h16.8v-21.3l25.18,20.16l33.56-26.88l33.57,26.88l33.57-26.88l33.53,26.88l33.56-26.88l33.6,26.87l33.61-26.88l33.62,26.88
		l33.67-26.89l25.27,20.17v7.86h16.8V312.51C882.09,271.22,848.5,237.63,807.21,237.63z M327.76,691.18
		c-27.79,0-50.39-22.61-50.39-50.39V506.4h-0.04c-0.2-24.69-7.61-43.93-22.09-57.15c-0.62-0.57-1.25-1.11-1.88-1.64h124.8v58.79
		v134.38C378.15,668.58,355.55,691.18,327.76,691.18z M495.74,345.93V506.4v184.78H372.05c14-12.32,22.9-30.32,22.9-50.39V506.4
		v-67.19V304.83c0-27.79,22.61-50.39,50.39-50.39c27.79,0,50.39,22.6,50.39,50.39V345.93z M865.29,813.01l-25.27-20.17l-33.67,26.87
		l-33.62-26.88l-33.61,26.88l-33.6-26.89l-33.56,26.88l-33.51-26.88l-33.59,26.88l-33.57-26.88l-33.56,26.88l-25.18-20.15V506.4
		V345.93v-41.1c0-20.07-8.9-38.07-22.9-50.39h317.58c32.02,0,58.08,26.06,58.08,58.08V813.01z"/>
	<path class="st0" d="M659.99,482.6c0-19.27,13.92-33.98,34.33-33.98c18.11,0,27,6.86,38.18,17.9l7.82-8.2
		c-9.99-10.55-21.24-19.33-39.83-20.89c0-0.09,0.05-0.17,0.05-0.26v-9.92c0-4.64-3.76-8.4-8.4-8.4c-4.64,0-8.4,3.76-8.4,8.4v9.92
		c0,0.35,0.16,0.64,0.2,0.97c-21.9,4.3-37.3,21.84-37.3,45.22c0,59.95,85.27,43.79,85.27,101.99c0,21.36-13.36,36.23-38.24,36.23
		c-20.39,0-36.52-10.57-47.68-20.8l-6.98,9.27c10.55,9.94,26.4,19.55,44.73,22.24v10.91c0,4.64,3.76,8.4,8.4,8.4
		c4.64,0,8.4-3.76,8.4-8.4V632.7c25.71-2.7,44.72-20.58,44.72-48.23C745.26,516.87,659.99,534.3,659.99,482.6z"/>
</g>
</svg>
