<?xml version="1.0" encoding="utf-8"?>
<!-- Generator: Adobe Illustrator 25.4.1, SVG Export Plug-In . SVG Version: 6.00 Build 0)  -->
<svg version="1.1" id="Layer_1" xmlns="http://www.w3.org/2000/svg" xmlns:xlink="http://www.w3.org/1999/xlink" x="0px" y="0px"
	 viewBox="0 0 1080 1080" style="enable-background:new 0 0 1080 1080;" xml:space="preserve">

<g>
	<path class="st0" d="M711.34,140.21H368.66c-19.68,0-35.7,16.01-35.7,35.7v635.39v92.81c0,19.68,16.01,35.7,35.7,35.7h342.68
		c19.68,0,35.7-16.01,35.7-35.7v-92.81V175.9C747.04,156.22,731.02,140.21,711.34,140.21z M732.76,904.1
		c0,11.81-9.61,21.42-21.42,21.42H368.66c-11.81,0-21.42-9.61-21.42-21.42v-64.43c5.98,4.53,13.35,7.32,21.42,7.32h342.68
		c8.07,0,15.43-2.79,21.42-7.32V904.1z M732.76,811.29c0,11.81-9.61,21.42-21.42,21.42H368.66c-11.81,0-21.42-9.61-21.42-21.42
		V175.9c0-11.81,9.61-21.42,21.42-21.42h342.68c11.81,0,21.42,9.61,21.42,21.42V811.29z"/>
	<circle class="st0" cx="540" cy="882.68" r="14.28"/>
	<circle class="st0" cx="540" cy="211.6" r="14.28"/>
	<circle class="st0" cx="582.83" cy="211.6" r="14.28"/>
	<circle class="st0" cx="497.16" cy="211.6" r="14.28"/>
</g>
</svg>
