<?xml version="1.0" encoding="utf-8"?>
<!-- Generator: Adobe Illustrator 25.4.1, SVG Export Plug-In . SVG Version: 6.00 Build 0)  -->
<svg version="1.1" xmlns="http://www.w3.org/2000/svg" xmlns:xlink="http://www.w3.org/1999/xlink" x="0px" y="0px"
	 viewBox="0 0 545 159.28" style="enable-background:new 0 0 545 159.28;" xml:space="preserve">

<g id="Layer_1">
</g>
<g id="Layer_2">
</g>
<g id="Layer_3">
	<g>
		<path class="st1" d="M490.2,0h-35.65c-0.65,0-1.28,0.07-1.92,0.1H38.14C17.11,0.1,0,17.21,0,38.24v82.8
			c0,21.03,17.11,38.14,38.14,38.14h361.14c0.75,0,1.36-0.61,1.36-1.36s-0.61-1.36-1.36-1.36H38.14
			c-19.53,0-35.41-15.89-35.41-35.41v-82.8c0-19.53,15.89-35.41,35.41-35.41H437.3c-21.79,7.25-37.56,27.79-37.56,51.98v35.65
			c0,15.5,6.67,30.37,18.3,40.79c5.32,4.76,7.08,12.18,4.4,18.46l-0.42,0.97c-1.04,2.42-0.46,5.15,1.48,6.94
			c1.18,1.09,2.66,1.65,4.16,1.65c0.97,0,1.96-0.24,2.88-0.72l14.57-7.63c7.09-3.71,15.07-5.67,23.08-5.67h21.99
			c30.22,0,54.8-24.59,54.8-54.81V54.8C545,24.58,520.42,0,490.2,0z M542.08,90.45c0,28.61-23.27,51.88-51.88,51.88H468.2
			c-8.48,0-16.93,2.08-24.44,6.01l-14.57,7.63c-1.5,0.79-2.89,0.26-3.7-0.49c-0.81-0.75-1.44-2.1-0.78-3.65l0.42-0.97
			c3.18-7.43,1.11-16.19-5.13-21.78c-11.01-9.87-17.33-23.95-17.33-38.62V54.8c0-28.61,23.28-51.88,51.88-51.88h35.65
			c28.61,0,51.88,23.28,51.88,51.88V90.45z"/>
		<path class="st1" d="M509.37,39.46c-7.2-7.84-16.49-13.11-26.88-15.24l-0.28-0.03c-2.28-0.47-4.73-0.78-7.49-0.93
			c-3.35-0.2-6.83,0.03-9.66,0.51l-0.31,0.02c-9.51,1.4-18.39,5.53-25.68,11.92c-10.97,9.57-17.26,23.42-17.26,37.98
			c0,13.97,5.84,27.24,15.99,36.75l-0.07,0.06l1.34,1.17c0.91,0.8,1.85,1.56,2.81,2.29c6.71,5.09,14.55,8.41,22.87,9.64l0.17,0.01
			c2.35,0.37,4.9,0.57,7.37,0.57c0.79,0,1.54,0,2.33-0.05c0,0,0,0,0.01,0c0,0,0,0,0.01,0c0.03,0,0.05,0,0.08,0
			c2.83-0.16,5.33-0.48,7.48-0.93l0.29-0.03c1.3-0.27,2.58-0.58,3.84-0.95c8.84-2.55,16.74-7.44,23.03-14.29
			c0.01-0.01,0.02-0.02,0.03-0.03l1.23-1.34l-0.07-0.04c7.87-9.15,12.23-20.72,12.23-32.83C522.78,60.96,518.02,48.81,509.37,39.46z
			 M507.93,42.27c7.36,8.33,11.52,18.86,11.86,29.95h-15.73c-0.24-9.15-2.67-17.91-7.1-25.57
			C500.86,45.53,504.54,44.06,507.93,42.27z M476.09,72.22V49.43c0.29,0,0.58,0.03,0.87,0.03c5.88,0,11.61-0.7,17.06-2.04
			c4.43,7.37,6.86,15.89,7.1,24.8H476.09z M501.13,75.14c-0.25,9.26-2.85,18.11-7.62,25.68c0,0,0,0,0,0.01
			c-0.58,0.93-1.2,1.83-1.83,2.7c-0.21,0.28-0.43,0.55-0.64,0.83c-0.44,0.58-0.88,1.16-1.35,1.71c-0.27,0.32-0.55,0.62-0.82,0.93
			c-0.43,0.49-0.86,0.97-1.31,1.43c-0.31,0.32-0.62,0.62-0.94,0.93c-0.44,0.43-0.88,0.86-1.34,1.26c-0.33,0.3-0.67,0.59-1.01,0.88
			c-0.46,0.39-0.92,0.77-1.39,1.13c-0.36,0.28-0.71,0.54-1.08,0.81c-0.48,0.35-0.96,0.68-1.46,1.01c-0.37,0.25-0.75,0.49-1.13,0.73
			c-0.5,0.31-1.02,0.61-1.54,0.9c-0.38,0.21-0.76,0.43-1.15,0.63c-0.15,0.08-0.3,0.14-0.45,0.22V99.46v-1.49V75.14H501.13z
			 M482.14,27.13c9.05,1.91,17.19,6.37,23.71,12.93c-3.24,1.65-6.75,3-10.48,4.02c-4.47-6.8-10.31-12.21-17.08-15.81
			C479.51,27.84,480.78,27.46,482.14,27.13z M474.55,26.17c0.31,0.02,0.57,0.06,0.87,0.08c-0.26,0.11-0.54,0.2-0.8,0.31
			c-0.36-0.15-0.74-0.26-1.1-0.41C473.86,26.15,474.2,26.15,474.55,26.17z M443.63,35.75c6.28-4.76,13.6-7.87,21.37-9.05
			c2.01,0.35,3.98,0.92,5.92,1.59c-6.31,3.36-11.84,8.33-16.21,14.56c-4.49-1.54-8.66-3.63-12.26-6.14
			C442.85,36.39,443.23,36.05,443.63,35.75z M440.19,108.68c-9.81-8.98-15.46-21.65-15.46-35c0-13.34,5.64-26.01,15.46-35
			c3.76,2.71,8.16,4.98,12.89,6.67c-4.92,7.98-7.62,17.19-7.87,26.87h-12.6c-0.81,0-1.46,0.65-1.46,1.46c0,0.81,0.65,1.46,1.46,1.46
			h12.55h0.05c0.25,9.67,2.95,18.89,7.87,26.87C448.35,103.7,443.96,105.97,440.19,108.68z M473.17,121.24c-0.26,0-0.53,0-0.8,0
			c-2.39,0.06-4.83-0.18-7.19-0.54c-0.34-0.05-0.68-0.13-1.02-0.18c-0.73-0.13-1.46-0.24-2.18-0.4c-0.44-0.1-0.86-0.22-1.3-0.33
			c-0.62-0.16-1.25-0.31-1.87-0.49c-0.45-0.13-0.89-0.29-1.34-0.44c-0.59-0.19-1.18-0.38-1.76-0.6c-0.45-0.16-0.88-0.35-1.32-0.53
			c-0.57-0.23-1.13-0.46-1.69-0.71c-0.44-0.2-0.86-0.41-1.3-0.63c-0.55-0.27-1.09-0.54-1.63-0.83c-0.42-0.23-0.84-0.47-1.26-0.71
			c-0.53-0.31-1.05-0.62-1.57-0.95c-0.41-0.26-0.81-0.52-1.2-0.79c-0.51-0.35-1.02-0.7-1.52-1.07c-0.39-0.28-0.77-0.57-1.14-0.87
			c-0.22-0.17-0.44-0.36-0.66-0.54c3.59-2.5,7.79-4.58,12.29-6.11c4.88,6.95,11.22,12.33,18.46,15.65V121.24z M473.17,116.96
			c-6.01-3.01-11.31-7.59-15.53-13.37c5.01-1.5,10.21-2.4,15.53-2.63V116.96z M473.17,98.08c-5.92,0.24-11.71,1.24-17.25,2.98
			c-4.86-7.65-7.53-16.55-7.78-25.91h25.04V98.08z M474.63,37.21c-0.81,0-1.46,0.65-1.46,1.46v9.24v24.31h-25.04
			c0.01-0.42,0.02-0.83,0.04-1.25c0.03-0.58,0.06-1.16,0.11-1.73c0.05-0.66,0.13-1.32,0.21-1.97c0.07-0.57,0.13-1.13,0.22-1.7
			c0.1-0.66,0.23-1.31,0.35-1.96c0.11-0.55,0.2-1.1,0.33-1.64c0.15-0.66,0.33-1.3,0.5-1.95c0.14-0.52,0.27-1.05,0.43-1.57
			c0.2-0.65,0.43-1.3,0.66-1.94c0.17-0.49,0.33-1,0.52-1.48c0.26-0.67,0.55-1.32,0.83-1.97c0.2-0.45,0.38-0.91,0.59-1.35
			c0.34-0.72,0.71-1.41,1.09-2.11c0.19-0.36,0.37-0.74,0.57-1.09c0.59-1.05,1.22-2.08,1.89-3.08c4.71-7.04,10.97-12.43,18.16-15.67
			c7.02,3.18,13.09,8.36,17.72,15.08c-4.93,1.13-10.09,1.73-15.38,1.73c-0.3,0-0.59-0.03-0.87-0.03v-7.84
			C476.09,37.86,475.44,37.21,474.63,37.21z M505.21,107.96c-0.4,0.39-0.81,0.77-1.23,1.15c-0.48,0.44-0.98,0.86-1.47,1.27
			c-0.42,0.35-0.84,0.69-1.27,1.03c-0.52,0.4-1.05,0.79-1.58,1.16c-0.44,0.31-0.87,0.62-1.31,0.91c-0.56,0.37-1.13,0.71-1.7,1.05
			c-0.44,0.27-0.88,0.54-1.34,0.79c-0.6,0.33-1.21,0.64-1.82,0.94c-0.44,0.22-0.88,0.45-1.33,0.66c-0.65,0.3-1.32,0.57-1.98,0.84
			c-0.43,0.17-0.85,0.36-1.29,0.53c-0.75,0.28-1.5,0.51-2.26,0.75c-0.37,0.12-0.73,0.25-1.11,0.36c-1.14,0.33-2.29,0.61-3.46,0.86
			l-0.3,0.03c-1.73,0.37-3.63,0.6-5.66,0.77v-0.9c0.73-0.34,1.45-0.67,2.16-1.04c0.33-0.18,0.65-0.38,0.97-0.56
			c0.66-0.37,1.31-0.73,1.95-1.14c0.37-0.24,0.73-0.5,1.09-0.75c0.57-0.38,1.15-0.76,1.7-1.18c0.38-0.28,0.74-0.59,1.11-0.88
			c0.52-0.41,1.04-0.82,1.54-1.25c0.37-0.32,0.73-0.67,1.09-1c0.48-0.44,0.96-0.88,1.42-1.34c0.36-0.36,0.7-0.74,1.05-1.12
			c0.44-0.47,0.88-0.94,1.31-1.43c0.34-0.4,0.67-0.81,1-1.22c0.4-0.5,0.81-1,1.2-1.52c0.32-0.43,0.63-0.88,0.94-1.33
			c0.26-0.38,0.54-0.74,0.79-1.12c3.71,1.01,7.22,2.36,10.47,4C505.65,107.51,505.44,107.74,505.21,107.96z M507.93,105.1
			c-3.4-1.79-7.08-3.26-10.97-4.38c4.43-7.66,6.86-16.43,7.1-25.57h15.73C519.45,86.23,515.29,96.77,507.93,105.1z"/>
		<path class="st1" d="M59.95,73.31L50.3,90.02c-0.83,1.44-2.32,2.3-3.98,2.3c-1.66,0-3.15-0.86-3.98-2.3L32.7,73.31
			c-0.38-0.65-1.21-0.88-1.86-0.5c-0.65,0.38-0.88,1.21-0.5,1.86l9.65,16.71c1.32,2.29,3.69,3.66,6.33,3.66
			c2.65,0,5.02-1.37,6.34-3.66l9.65-16.71c0.38-0.65,0.15-1.48-0.5-1.86C61.16,72.44,60.33,72.66,59.95,73.31z"/>
	</g>
</g>
<g id="Layer_4">
</g>
<g id="Layer_5">
</g>
<g id="Layer_6">
</g>
<g id="Layer_7">
</g>
</svg>
