<?xml version="1.0" encoding="utf-8"?>
<!-- Generator: Adobe Illustrator 25.4.1, SVG Export Plug-In . SVG Version: 6.00 Build 0)  -->
<svg version="1.1" xmlns="http://www.w3.org/2000/svg" xmlns:xlink="http://www.w3.org/1999/xlink" x="0px" y="0px"
	 viewBox="0 0 20.46 13.5" style="enable-background:new 0 0 20.46 13.5;" xml:space="preserve">

<g id="Layer_1">
</g>
<g id="Layer_2">
</g>
<g id="Layer_3">
	<path class="st1" d="M19.03,0H1.43C0.64,0,0,0.64,0,1.43v10.64c0,0.79,0.64,1.43,1.43,1.43h17.6c0.79,0,1.43-0.64,1.43-1.43V1.43
		C20.46,0.64,19.82,0,19.03,0z M18.11,0.41L10.23,6.7L2.35,0.41H18.11z M20.05,12.07c0,0.56-0.46,1.02-1.02,1.02H1.43
		c-0.56,0-1.02-0.46-1.02-1.02V1.43c0-0.56,0.46-1.02,1.02-1.02h0.26l8.41,6.71c0.04,0.03,0.08,0.04,0.13,0.04
		c0.05,0,0.09-0.01,0.13-0.04l8.41-6.71h0.26c0.56,0,1.02,0.46,1.02,1.02V12.07z"/>
</g>
<g id="Layer_4">
</g>
<g id="Layer_5">
</g>
<g id="Layer_6">
</g>
<g id="Layer_7">
</g>
<g id="Layer_8">
</g>
<g id="Layer_9">
</g>
<g id="Layer_10">
</g>
</svg>
