<?xml version="1.0" encoding="utf-8"?>
<!-- Generator: Adobe Illustrator 25.4.1, SVG Export Plug-In . SVG Version: 6.00 Build 0)  -->
<svg version="1.1" xmlns="http://www.w3.org/2000/svg" xmlns:xlink="http://www.w3.org/1999/xlink" x="0px" y="0px"
	 viewBox="0 0 56.73 83.59" style="enable-background:new 0 0 56.73 83.59;" xml:space="preserve">
<style type="text/css">
	.st0{fill:#FFFFFF;}
	.st1{fill:#BC3827;}
	.st2{fill:none;stroke:#606060;stroke-miterlimit:10;}
	.st3{fill:url(#SVGID_1_);}
	.st4{fill:none;stroke:#BC3827;stroke-miterlimit:10;}
	.st5{fill:url(#SVGID_00000161596825644735756610000013604507944746342578_);}
	.st6{fill:#EFEFEF;}
	.st7{fill:url(#SVGID_00000049196370560272095900000004780202679973284265_);}
	.st8{fill:url(#SVGID_00000021093724111794918680000003688432439471973811_);}
	.st9{fill:url(#SVGID_00000041998971095980639490000007136207017867941046_);}
	.st10{fill:#440C0A;}
	.st11{fill:url(#SVGID_00000078019527624492791370000012073469114562655422_);}
	.st12{fill:url(#SVGID_00000121971722195810338510000006563920865736145334_);}
	.st13{clip-path:url(#SVGID_00000095320814543329594630000008520625549364698796_);}
	.st14{fill:url(#SVGID_00000034072791559162603630000012987580867315958719_);}
	.st15{fill:url(#SVGID_00000000197788446867549550000009449299524334268342_);}
	.st16{fill:#F17E80;}
	.st17{opacity:0.7;fill:#FFFFFF;}
	.st18{fill:none;stroke:#233239;stroke-linecap:round;stroke-linejoin:round;stroke-miterlimit:10;}
	.st19{fill:none;stroke:#233239;stroke-linecap:round;stroke-miterlimit:10;}
	.st20{fill:#233239;stroke:#233239;stroke-linecap:round;stroke-miterlimit:10;}
	.st21{fill:#FFFFFF;stroke:#233239;stroke-miterlimit:10;}
	.st22{fill:none;stroke:#233239;stroke-miterlimit:10;}
	.st23{fill:#233239;stroke:#233239;stroke-miterlimit:10;}
	.st24{fill:#75E6A4;}
	.st25{fill:#233239;}
	.st26{fill:#FFFFFF;stroke:#3A2C08;stroke-miterlimit:10;}
	.st27{fill:none;stroke:#3A2C08;stroke-miterlimit:10;}
	.st28{fill:#F26D1E;stroke:#3A2C08;stroke-linecap:round;stroke-linejoin:round;stroke-miterlimit:10;}
	.st29{fill:#F60052;stroke:#3B241A;stroke-linecap:round;stroke-linejoin:round;stroke-miterlimit:10;}
	.st30{opacity:0.67;fill:#FFFFFF;stroke:#3B241A;stroke-linecap:round;stroke-linejoin:round;stroke-miterlimit:10;}
	.st31{fill:none;stroke:#3B241A;stroke-linecap:round;stroke-linejoin:round;stroke-miterlimit:10;}
	.st32{fill:none;stroke:#3B241A;stroke-miterlimit:10;}
	.st33{fill:#F36480;stroke:#3B251B;stroke-linecap:round;stroke-linejoin:round;stroke-miterlimit:10;}
	.st34{opacity:0.67;fill:#FFFFFF;stroke:#3B251B;stroke-linecap:round;stroke-linejoin:round;stroke-miterlimit:10;}
	.st35{fill:none;stroke:#3B251B;stroke-linecap:round;stroke-linejoin:round;stroke-miterlimit:10;}
	.st36{fill:none;stroke:#3B251B;stroke-miterlimit:10;}
	.st37{fill:#F6001C;stroke:#3B2618;stroke-linecap:round;stroke-linejoin:round;stroke-miterlimit:10;}
	.st38{opacity:0.36;fill:#FFFFFF;stroke:#3B2618;stroke-linecap:round;stroke-linejoin:round;stroke-miterlimit:10;}
	.st39{fill:none;stroke:#3B2618;stroke-linecap:round;stroke-linejoin:round;stroke-miterlimit:10;}
	.st40{fill:none;stroke:#3B2618;stroke-miterlimit:10;}
	.st41{fill:#FFFFFF;stroke:#3C1800;stroke-miterlimit:10;}
	.st42{fill:#F60000;}
	.st43{opacity:0.77;fill:#FFFFFF;}
	.st44{fill:none;stroke:#3C1800;stroke-miterlimit:10;}
	.st45{fill:#F60000;stroke:#3C1800;stroke-linecap:round;stroke-linejoin:round;stroke-miterlimit:10;}
	.st46{fill:none;stroke:#BC3827;stroke-width:6;stroke-linecap:round;stroke-linejoin:bevel;stroke-miterlimit:10;}
	.st47{opacity:0.71;fill:#BC3827;}
	.st48{clip-path:url(#SVGID_00000047042361865816661180000000771197616953206710_);}
	.st49{fill:#606060;}
	.st50{fill:url(#SVGID_00000042726844515150807180000009969175889701282699_);}
	.st51{fill:none;stroke:#BC3827;stroke-width:10;stroke-linecap:round;stroke-linejoin:round;stroke-miterlimit:10;}
	.st52{fill:url(#SVGID_00000064313397341620642600000001736656986234045631_);}
	.st53{fill:url(#SVGID_00000152980279268748903190000007020034665387967912_);}
	.st54{fill:#FFFFFF;stroke:#606060;stroke-miterlimit:10;}
	.st55{fill:none;stroke:#606060;stroke-width:3;stroke-linecap:round;stroke-miterlimit:10;}
	.st56{fill:url(#SVGID_00000165934640877973382940000006227573973749210526_);}
	.st57{fill:none;stroke:#BC3827;stroke-linecap:round;stroke-miterlimit:10;}
	.st58{fill:none;stroke:#BC3827;stroke-linecap:round;stroke-linejoin:round;stroke-miterlimit:10;}
	.st59{fill:none;stroke:#FFFFFF;stroke-width:4;stroke-linecap:round;stroke-linejoin:round;stroke-miterlimit:10;}
	.st60{fill:url(#SVGID_00000119089753072608657180000006940661500950553740_);}
	.st61{fill:url(#SVGID_00000145773681334725257680000014599686134416281258_);}
	.st62{fill:url(#SVGID_00000050647698723403986900000012001402517233503875_);}
	.st63{fill:none;stroke:#FFFFFF;stroke-miterlimit:10;}
	.st64{fill:url(#SVGID_00000011739034716997517740000003298555709790727853_);}
	.st65{fill:url(#SVGID_00000116237616349037824450000016756789998960433558_);}
	.st66{fill:none;stroke:url(#SVGID_00000094600404787010964920000000654782645106742916_);stroke-width:2;stroke-miterlimit:10;}
	.st67{fill:#E2E2E2;}
	.st68{fill:#009900;}
	.st69{fill:none;stroke:url(#SVGID_00000143600710503314751270000006044617718708095917_);stroke-miterlimit:10;}
	.st70{fill:none;stroke:url(#SVGID_00000177447883292905565840000002324428229581955733_);stroke-miterlimit:10;}
	.st71{fill:none;stroke:url(#SVGID_00000162352738394948234140000017450430780501482641_);stroke-miterlimit:10;}
	.st72{fill:none;stroke:url(#SVGID_00000164487675576172131860000004425893814254795919_);stroke-miterlimit:10;}
	.st73{fill:none;stroke:url(#SVGID_00000044140095832351369880000005641096509861387959_);stroke-miterlimit:10;}
	.st74{fill:none;stroke:url(#SVGID_00000082326514950581536800000017689055962176038076_);stroke-miterlimit:10;}
	.st75{fill:none;stroke:url(#SVGID_00000076585494542111073350000010986347706304830606_);stroke-miterlimit:10;}
	.st76{fill:url(#SVGID_00000081614616750412565080000011922350783414363033_);}
	.st77{fill:none;stroke:url(#SVGID_00000124136859788063878730000002432590636629722534_);stroke-miterlimit:10;}
	.st78{fill:none;stroke:url(#SVGID_00000115513422939446175190000012724754715020256159_);stroke-miterlimit:10;}
	.st79{fill:none;stroke:url(#SVGID_00000088104623134007833950000012100751609603330978_);stroke-miterlimit:10;}
	.st80{fill:url(#SVGID_00000114793738934806295100000016928064912171048578_);}
	.st81{fill:none;stroke:url(#SVGID_00000096037668128570912430000018219927439636121520_);stroke-miterlimit:10;}
	.st82{fill:none;stroke:url(#SVGID_00000037673364159707059500000004209028584189947806_);stroke-miterlimit:10;}
	.st83{fill:none;stroke:url(#SVGID_00000096055235722849069060000016069082840896805010_);stroke-miterlimit:10;}
	.st84{fill:url(#SVGID_00000120553900943206238720000012153763045361486491_);}
	.st85{fill-rule:evenodd;clip-rule:evenodd;fill:#D50012;}
	.st86{fill-rule:evenodd;clip-rule:evenodd;}
	.st87{fill-rule:evenodd;clip-rule:evenodd;fill:#FFFFFF;}
	.st88{fill:url(#SVGID_00000052815555007060968830000004354618827639194813_);}
	.st89{fill:none;stroke:#5B2C91;stroke-miterlimit:10;}
	.st90{fill:url(#SVGID_00000042715402087240483080000002646104266114422192_);}
	.st91{fill:none;stroke:url(#SVGID_00000062155503114758537920000007447041519697285796_);stroke-miterlimit:10;}
	.st92{opacity:0.54;}
	.st93{fill:none;stroke:url(#SVGID_00000066478064527193006590000008494887108934848172_);stroke-miterlimit:10;}
	.st94{opacity:0.43;}
	.st95{fill:url(#SVGID_00000120559057128354287040000004211069212380953268_);}
	.st96{fill:none;stroke:url(#SVGID_00000065757287072902538540000009682884903517166268_);stroke-miterlimit:10;}
	.st97{opacity:0.7;}
	.st98{fill:url(#SVGID_00000065795966633165149520000016403164039305695384_);}
	.st99{fill:url(#SVGID_00000071537168369162314570000017611375099410071719_);}
	.st100{fill:none;stroke:url(#SVGID_00000182514737382256010570000008351412679389361058_);stroke-miterlimit:10;}
	.st101{fill:url(#SVGID_00000022533399202147911660000001222474144827647642_);}
	.st102{fill:none;stroke:url(#SVGID_00000083079117602559096770000008439911949466370202_);stroke-miterlimit:10;}
	.st103{fill:url(#SVGID_00000010281262421064916270000008447380579301036705_);}
	.st104{fill:#E72105;}
	.st105{clip-path:url(#SVGID_00000106869776102516034450000015345617682029200574_);}
	.st106{fill:#FFFFFF;stroke:#BC3827;stroke-linecap:round;stroke-linejoin:round;stroke-miterlimit:10;}
	.st107{fill:#FFFFFF;stroke:#233239;stroke-linecap:round;stroke-linejoin:round;stroke-miterlimit:10;}
	.st108{fill:#FFFFFF;stroke:#233239;stroke-width:0.5;stroke-miterlimit:10;}
	.st109{fill:url(#SVGID_00000087379985903225561080000014071133510098822531_);stroke:#FFFFFF;stroke-miterlimit:10;}
	.st110{fill:url(#SVGID_00000073707693226072919140000004713714578614635928_);stroke:#FFFFFF;stroke-miterlimit:10;}
	.st111{fill:#919191;stroke:#233239;stroke-linecap:round;stroke-linejoin:round;stroke-miterlimit:10;}
	.st112{fill:url(#SVGID_00000137106300116986599010000014246844571837455011_);}
	.st113{fill:url(#SVGID_00000160900390568370568460000016149364704855925632_);}
	.st114{fill:none;stroke:url(#SVGID_00000002343802982306357460000000050627216093353600_);stroke-miterlimit:10;}
	.st115{fill:none;stroke:url(#SVGID_00000079475629194745350720000016664823062320336278_);stroke-miterlimit:10;}
	.st116{fill:#CBCBCB;}
	.st117{fill:url(#SVGID_00000026132008376613181820000014905333466175044787_);}
	.st118{fill:none;stroke:url(#SVGID_00000023271691382503499590000013140133438589722250_);stroke-miterlimit:10;}
	.st119{fill:#520002;}
	.st120{fill:none;stroke:#520002;stroke-miterlimit:10;}
	.st121{fill:url(#SVGID_00000032625720915635337030000014405440322145556139_);}
	.st122{fill:url(#SVGID_00000026158695343443450840000006025709983173746874_);}
	.st123{fill:url(#SVGID_00000080174412134009802060000013893362096816660871_);}
</style>
<g id="Layer_1">
</g>
<g id="Layer_2">
</g>
<g id="Layer_3">
	<g>
		<path class="st1" d="M56.73,15.29v63.09c0,2.88-2.34,5.22-5.23,5.22H5.23C2.34,83.59,0,81.25,0,78.38V5.22C0,2.34,2.34,0,5.23,0
			h36.19c0.21,0,0.39,0.08,0.54,0.21l14.56,14.56C56.65,14.91,56.73,15.09,56.73,15.29z"/>
		<g>
			<path class="st0" d="M56.52,14.77L41.96,0.21C41.82,0.08,41.63,0,41.42,0H5.23C2.34,0,0,2.34,0,5.22v73.16
				c0,2.88,2.34,5.22,5.23,5.22H51.5c2.89,0,5.23-2.34,5.23-5.22V15.29C56.73,15.09,56.65,14.91,56.52,14.77z M41.8,2.17
				l12.38,12.39h-8.64c-2.06,0-3.73-1.68-3.73-3.74V2.17z M55.24,78.38c0,2.05-1.68,3.73-3.74,3.73H5.23
				c-2.06,0-3.73-1.68-3.73-3.73V5.22c0-2.05,1.67-3.73,3.73-3.73h35.08v9.33c0,2.89,2.35,5.23,5.23,5.23h9.71V78.38z"/>
			<path class="st0" d="M8.21,15.67h20.9c0.41,0,0.75-0.33,0.75-0.75c0-0.41-0.33-0.75-0.75-0.75H8.21c-0.41,0-0.75,0.33-0.75,0.75
				C7.46,15.34,7.8,15.67,8.21,15.67z"/>
			<path class="st0" d="M8.21,24.63h28.37c0.41,0,0.75-0.33,0.75-0.75s-0.33-0.75-0.75-0.75H8.21c-0.41,0-0.75,0.33-0.75,0.75
				S7.8,24.63,8.21,24.63z"/>
			<path class="st0" d="M8.21,33.59h31.35c0.41,0,0.75-0.33,0.75-0.75c0-0.41-0.33-0.75-0.75-0.75H8.21c-0.41,0-0.75,0.33-0.75,0.75
				C7.46,33.25,7.8,33.59,8.21,33.59z"/>
			<path class="st0" d="M8.21,51.5h31.35c0.41,0,0.75-0.33,0.75-0.75c0-0.41-0.33-0.75-0.75-0.75H8.21c-0.41,0-0.75,0.33-0.75,0.75
				C7.46,51.17,7.8,51.5,8.21,51.5z"/>
			<path class="st0" d="M8.21,60.46h28.37c0.41,0,0.75-0.33,0.75-0.75c0-0.41-0.33-0.75-0.75-0.75H8.21c-0.41,0-0.75,0.33-0.75,0.75
				C7.46,60.12,7.8,60.46,8.21,60.46z"/>
			<path class="st0" d="M41.05,67.92H8.21c-0.41,0-0.75,0.33-0.75,0.75s0.33,0.75,0.75,0.75h32.84c0.41,0,0.75-0.33,0.75-0.75
				S41.47,67.92,41.05,67.92z"/>
			<path class="st0" d="M15.87,39.03c-0.24-0.43-0.55-0.77-0.96-1.03c-0.41-0.25-0.88-0.37-1.42-0.37H9.7v10.05h0.75v-4.05h3.05
				c0.54,0,1.01-0.14,1.42-0.41c0.41-0.28,0.72-0.64,0.96-1.12c0.24-0.47,0.35-1,0.35-1.6C16.22,39.95,16.11,39.45,15.87,39.03z
				 M15.21,41.74c-0.17,0.35-0.41,0.64-0.7,0.85c-0.29,0.21-0.62,0.31-1,0.31h-3.07v-4.55h3.07c0.38,0,0.71,0.09,1,0.29
				c0.29,0.18,0.53,0.43,0.7,0.76c0.16,0.31,0.25,0.68,0.25,1.1C15.46,40.98,15.37,41.38,15.21,41.74z"/>
			<path class="st0" d="M28.65,40.63c-0.24-0.6-0.56-1.14-1-1.59c-0.42-0.45-0.92-0.79-1.5-1.04c-0.56-0.25-1.18-0.37-1.83-0.37
				h-3.68v10.05h3.68c0.64,0,1.26-0.12,1.83-0.37c0.58-0.25,1.08-0.6,1.5-1.05c0.43-0.45,0.76-0.99,1-1.59
				c0.24-0.62,0.35-1.29,0.35-2.02C29.01,41.92,28.89,41.25,28.65,40.63z M27.94,44.39c-0.21,0.53-0.49,0.97-0.85,1.37
				c-0.37,0.38-0.79,0.67-1.27,0.88c-0.49,0.21-1,0.33-1.56,0.33H21.4v-8.61h2.85c0.56,0,1.08,0.11,1.56,0.32
				c0.49,0.21,0.91,0.51,1.27,0.89c0.37,0.38,0.64,0.84,0.85,1.37c0.21,0.53,0.32,1.1,0.32,1.72
				C28.26,43.29,28.15,43.87,27.94,44.39z"/>
			<polygon class="st0" points="39.38,38.37 39.38,37.63 34.19,37.63 33.81,37.63 33.44,37.63 33.44,47.69 34.19,47.69 34.19,43.01 
				38.61,43.01 38.61,42.27 34.19,42.27 34.19,38.37 			"/>
		</g>
	</g>
</g>
<g id="Layer_4">
</g>
<g id="Layer_5">
</g>
<g id="Layer_6">
</g>
<g id="Layer_7">
</g>
<g id="Layer_8">
</g>
<g id="Layer_9">
</g>
<g id="Layer_10">
</g>
</svg>
