<?xml version="1.0" encoding="utf-8"?>
<!-- Generator: Adobe Illustrator 25.4.1, SVG Export Plug-In . SVG Version: 6.00 Build 0)  -->
<svg version="1.1" xmlns="http://www.w3.org/2000/svg" xmlns:xlink="http://www.w3.org/1999/xlink" x="0px" y="0px"
	 viewBox="0 0 75.7 84.46" style="enable-background:new 0 0 75.7 84.46;" xml:space="preserve">
<style type="text/css">
	.st0{fill:#FFFFFF;}
	.st1{fill:#BC3827;}
	.st2{fill:none;stroke:#606060;stroke-miterlimit:10;}
	.st3{fill:url(#SVGID_1_);}
	.st4{fill:none;stroke:#BC3827;stroke-miterlimit:10;}
	.st5{fill:url(#SVGID_00000099635679521371261850000017126685965909913219_);}
	.st6{fill:#EFEFEF;}
	.st7{fill:url(#SVGID_00000183233325215561724340000003889747130661432984_);}
	.st8{fill:url(#SVGID_00000114043269698896610490000007640295992217732007_);}
	.st9{fill:url(#SVGID_00000132792009959337067990000016502153945439957413_);}
	.st10{fill:#440C0A;}
	.st11{fill:url(#SVGID_00000134221809252397103420000016132732390990246292_);}
	.st12{fill:url(#SVGID_00000092414451468513464330000004287330844722685601_);}
	.st13{clip-path:url(#SVGID_00000154395733808102322810000008329605299659841457_);}
	.st14{fill:url(#SVGID_00000048495849825317243200000010712407856434517667_);}
	.st15{fill:url(#SVGID_00000108302203535248920880000006307089200108096899_);}
	.st16{fill:#F17E80;}
	.st17{opacity:0.7;fill:#FFFFFF;}
	.st18{fill:none;stroke:#233239;stroke-linecap:round;stroke-linejoin:round;stroke-miterlimit:10;}
	.st19{fill:none;stroke:#233239;stroke-linecap:round;stroke-miterlimit:10;}
	.st20{fill:#233239;stroke:#233239;stroke-linecap:round;stroke-miterlimit:10;}
	.st21{fill:#FFFFFF;stroke:#233239;stroke-miterlimit:10;}
	.st22{fill:none;stroke:#233239;stroke-miterlimit:10;}
	.st23{fill:#233239;stroke:#233239;stroke-miterlimit:10;}
	.st24{fill:#75E6A4;}
	.st25{fill:#233239;}
	.st26{fill:#FFFFFF;stroke:#3A2C08;stroke-miterlimit:10;}
	.st27{fill:none;stroke:#3A2C08;stroke-miterlimit:10;}
	.st28{fill:#F26D1E;stroke:#3A2C08;stroke-linecap:round;stroke-linejoin:round;stroke-miterlimit:10;}
	.st29{fill:#F60052;stroke:#3B241A;stroke-linecap:round;stroke-linejoin:round;stroke-miterlimit:10;}
	.st30{opacity:0.67;fill:#FFFFFF;stroke:#3B241A;stroke-linecap:round;stroke-linejoin:round;stroke-miterlimit:10;}
	.st31{fill:none;stroke:#3B241A;stroke-linecap:round;stroke-linejoin:round;stroke-miterlimit:10;}
	.st32{fill:none;stroke:#3B241A;stroke-miterlimit:10;}
	.st33{fill:#F36480;stroke:#3B251B;stroke-linecap:round;stroke-linejoin:round;stroke-miterlimit:10;}
	.st34{opacity:0.67;fill:#FFFFFF;stroke:#3B251B;stroke-linecap:round;stroke-linejoin:round;stroke-miterlimit:10;}
	.st35{fill:none;stroke:#3B251B;stroke-linecap:round;stroke-linejoin:round;stroke-miterlimit:10;}
	.st36{fill:none;stroke:#3B251B;stroke-miterlimit:10;}
	.st37{fill:#F6001C;stroke:#3B2618;stroke-linecap:round;stroke-linejoin:round;stroke-miterlimit:10;}
	.st38{opacity:0.36;fill:#FFFFFF;stroke:#3B2618;stroke-linecap:round;stroke-linejoin:round;stroke-miterlimit:10;}
	.st39{fill:none;stroke:#3B2618;stroke-linecap:round;stroke-linejoin:round;stroke-miterlimit:10;}
	.st40{fill:none;stroke:#3B2618;stroke-miterlimit:10;}
	.st41{fill:#FFFFFF;stroke:#3C1800;stroke-miterlimit:10;}
	.st42{fill:#F60000;}
	.st43{opacity:0.77;fill:#FFFFFF;}
	.st44{fill:none;stroke:#3C1800;stroke-miterlimit:10;}
	.st45{fill:#F60000;stroke:#3C1800;stroke-linecap:round;stroke-linejoin:round;stroke-miterlimit:10;}
	.st46{fill:none;stroke:#BC3827;stroke-width:6;stroke-linecap:round;stroke-linejoin:bevel;stroke-miterlimit:10;}
	.st47{opacity:0.71;fill:#BC3827;}
	.st48{clip-path:url(#SVGID_00000075156516415485354240000005922030551432901806_);}
	.st49{fill:#606060;}
	.st50{fill:url(#SVGID_00000138551402384375525330000016893576514104914351_);}
	.st51{fill:none;stroke:#BC3827;stroke-width:10;stroke-linecap:round;stroke-linejoin:round;stroke-miterlimit:10;}
	.st52{fill:url(#SVGID_00000183219732253140779100000010260240262057070989_);}
	.st53{fill:url(#SVGID_00000078013460355703382100000014882295269001078438_);}
	.st54{fill:#FFFFFF;stroke:#606060;stroke-miterlimit:10;}
	.st55{fill:none;stroke:#606060;stroke-width:3;stroke-linecap:round;stroke-miterlimit:10;}
	.st56{fill:url(#SVGID_00000145749371685782364930000017706412348219556228_);}
	.st57{fill:none;stroke:#BC3827;stroke-linecap:round;stroke-miterlimit:10;}
	.st58{fill:none;stroke:#BC3827;stroke-linecap:round;stroke-linejoin:round;stroke-miterlimit:10;}
	.st59{fill:none;stroke:#FFFFFF;stroke-width:4;stroke-linecap:round;stroke-linejoin:round;stroke-miterlimit:10;}
	.st60{fill:url(#SVGID_00000031907715040665137940000015145835250104484251_);}
	.st61{fill:url(#SVGID_00000178918855808449724450000010517844792426487998_);}
	.st62{fill:url(#SVGID_00000036939680975393493320000014139387307737702538_);}
	.st63{fill:none;stroke:#FFFFFF;stroke-miterlimit:10;}
	.st64{fill:url(#SVGID_00000018923758652821003880000016322148589217919155_);}
	.st65{fill:url(#SVGID_00000022534051498166744410000013155037648469960366_);}
	.st66{fill:none;stroke:url(#SVGID_00000037666631234453912880000015024943036956571272_);stroke-width:2;stroke-miterlimit:10;}
	.st67{fill:#E2E2E2;}
	.st68{fill:#009900;}
	.st69{fill:none;stroke:url(#SVGID_00000130634888038121878650000018413350036712379060_);stroke-miterlimit:10;}
	.st70{fill:none;stroke:url(#SVGID_00000136369411418631982620000010370316326614463145_);stroke-miterlimit:10;}
	.st71{fill:none;stroke:url(#SVGID_00000159456203618082911850000010463520789774855817_);stroke-miterlimit:10;}
	.st72{fill:none;stroke:url(#SVGID_00000168797149225014845530000016610553675238849942_);stroke-miterlimit:10;}
	.st73{fill:none;stroke:url(#SVGID_00000129177813277687625050000017243633761948702356_);stroke-miterlimit:10;}
	.st74{fill:none;stroke:url(#SVGID_00000180332444387132405590000000074490047472904113_);stroke-miterlimit:10;}
	.st75{fill:none;stroke:url(#SVGID_00000099643295781377094310000012557072063467130269_);stroke-miterlimit:10;}
	.st76{fill:url(#SVGID_00000154408238663607225900000010550726604233602958_);}
	.st77{fill:none;stroke:url(#SVGID_00000080918344234102575310000009959060315969331368_);stroke-miterlimit:10;}
	.st78{fill:none;stroke:url(#SVGID_00000026143182115440560930000004662175779327193223_);stroke-miterlimit:10;}
	.st79{fill:none;stroke:url(#SVGID_00000017495471591506047420000011820427927839678345_);stroke-miterlimit:10;}
	.st80{fill:url(#SVGID_00000147910137330101177650000007599400737697673407_);}
	.st81{fill:none;stroke:url(#SVGID_00000015340136160311269790000006523646364048581786_);stroke-miterlimit:10;}
	.st82{fill:none;stroke:url(#SVGID_00000037671580660435678690000003230436067517616813_);stroke-miterlimit:10;}
	.st83{fill:none;stroke:url(#SVGID_00000149349354580385845290000016846419315147142043_);stroke-miterlimit:10;}
	.st84{fill:url(#SVGID_00000100347793777507066330000015330704907521342091_);}
	.st85{fill-rule:evenodd;clip-rule:evenodd;fill:#D50012;}
	.st86{fill-rule:evenodd;clip-rule:evenodd;}
	.st87{fill-rule:evenodd;clip-rule:evenodd;fill:#FFFFFF;}
	.st88{fill:url(#SVGID_00000101076340532089464510000011738583632332003511_);}
	.st89{fill:none;stroke:#5B2C91;stroke-miterlimit:10;}
	.st90{fill:url(#SVGID_00000183208790221146003450000010877578105682557871_);}
	.st91{fill:none;stroke:url(#SVGID_00000017499416882751579750000011206587176548380805_);stroke-miterlimit:10;}
	.st92{opacity:0.54;}
	.st93{fill:none;stroke:url(#SVGID_00000066477242132117023360000001322138348684068268_);stroke-miterlimit:10;}
	.st94{opacity:0.43;}
	.st95{fill:url(#SVGID_00000073702482004201969020000008825358550201605771_);}
	.st96{fill:none;stroke:url(#SVGID_00000165214984360966948510000010083557782643128712_);stroke-miterlimit:10;}
	.st97{opacity:0.7;}
	.st98{fill:url(#SVGID_00000131369066693533305650000002883696522616061575_);}
	.st99{fill:url(#SVGID_00000137812837258261367900000003901792512073375638_);}
	.st100{fill:none;stroke:url(#SVGID_00000151526715145210567560000010529877451966224286_);stroke-miterlimit:10;}
	.st101{fill:url(#SVGID_00000180354740793970380990000014462112810298667438_);}
	.st102{fill:none;stroke:url(#SVGID_00000139986689796208320920000004556873306864853390_);stroke-miterlimit:10;}
	.st103{fill:url(#SVGID_00000013159508207127467400000007085113251148151480_);}
	.st104{fill:#E72105;}
	.st105{clip-path:url(#SVGID_00000103967384747789059410000004888028893825762720_);}
	.st106{fill:#FFFFFF;stroke:#BC3827;stroke-linecap:round;stroke-linejoin:round;stroke-miterlimit:10;}
	.st107{fill:#FFFFFF;stroke:#233239;stroke-linecap:round;stroke-linejoin:round;stroke-miterlimit:10;}
	.st108{fill:#FFFFFF;stroke:#233239;stroke-width:0.5;stroke-miterlimit:10;}
	.st109{fill:url(#SVGID_00000176751949423977043030000010606319594740290493_);stroke:#FFFFFF;stroke-miterlimit:10;}
	.st110{fill:url(#SVGID_00000160154508209843286160000013611860267047170439_);stroke:#FFFFFF;stroke-miterlimit:10;}
	.st111{fill:#919191;stroke:#233239;stroke-linecap:round;stroke-linejoin:round;stroke-miterlimit:10;}
	.st112{fill:url(#SVGID_00000038411942637797488010000003626283544052556183_);}
	.st113{fill:url(#SVGID_00000154424858067428889020000005614720774685965742_);}
	.st114{fill:none;stroke:url(#SVGID_00000049209262743630084070000016742743063509390493_);stroke-miterlimit:10;}
	.st115{fill:none;stroke:url(#SVGID_00000101081769467233513280000007773479835580510636_);stroke-miterlimit:10;}
	.st116{fill:#CBCBCB;}
	.st117{fill:url(#SVGID_00000096770906436601431490000017691339807438307981_);}
	.st118{fill:none;stroke:url(#SVGID_00000130630307836282462940000006560438112349462152_);stroke-miterlimit:10;}
	.st119{fill:#520002;}
	.st120{fill:none;stroke:#520002;stroke-miterlimit:10;}
	.st121{fill:url(#SVGID_00000039829625813415647790000002896986282085144198_);}
	.st122{fill:url(#SVGID_00000180349313565031013290000009450814416424323221_);}
	.st123{fill:url(#SVGID_00000101803429797062901610000012734237623511526076_);}
</style>
<g id="Layer_1">
</g>
<g id="Layer_2">
</g>
<g id="Layer_3">
	<g>
		<path class="st1" d="M75.7,37.85c0,16.4-10.44,30.83-25.99,35.94c-3.8,1.26-7.79,1.91-11.86,1.91c-1.39,0-2.77-0.07-4.13-0.21
			c-2.69-0.3-5.2,0.11-7.24,1.16l-14.94,7.82l3.6-8.41c1.34-3.13,0.46-6.82-2.19-9.2c-1.68-1.51-3.15-3.18-4.35-4.99l-0.03-0.03
			H8.57l-0.05-0.08C3.02,55.03,0,46.54,0,37.85c0-8.13,2.54-15.87,7.33-22.37C11.94,9.14,18.29,4.49,25.7,2.01
			c7.13-2.47,15.24-2.68,22.64-0.53C64.44,6.09,75.7,21.04,75.7,37.85z"/>
		<g>
			<path class="st0" d="M48.33,1.48c-7.4-2.15-15.5-1.94-22.64,0.53C18.29,4.49,11.94,9.14,7.33,15.47C2.54,21.98,0,29.72,0,37.85
				c0,8.7,3.02,17.18,8.51,23.91l0.05,0.08h0.01l0.03,0.03c1.2,1.81,2.67,3.48,4.35,4.99c2.65,2.38,3.53,6.07,2.19,9.2l-3.6,8.41
				l14.94-7.82c2.04-1.05,4.55-1.46,7.24-1.16c1.35,0.14,2.73,0.21,4.13,0.21c4.07,0,8.07-0.64,11.86-1.91
				C65.25,68.68,75.7,54.24,75.7,37.85C75.7,21.04,64.44,6.09,48.33,1.48z M49.25,72.4c-3.65,1.22-7.49,1.85-11.4,1.85
				c-1.34,0-2.67-0.08-3.97-0.22c-2.98-0.33-5.77,0.14-8.11,1.35L14.5,81.27l1.98-4.64c1.58-3.71,0.55-8.07-2.56-10.86
				c-1.59-1.42-2.97-3.01-4.11-4.7l-0.05-0.08L9.7,60.92c-5.32-6.49-8.25-14.67-8.25-23.07c0-7.82,2.44-15.25,7.05-21.51
				c4.44-6.1,10.55-10.56,17.66-12.95c6.87-2.38,14.66-2.57,21.77-0.51c15.5,4.44,26.33,18.83,26.33,34.97
				C74.25,53.6,64.2,67.5,49.25,72.4z"/>
			<path class="st0" d="M51.08,42.06l-3.25-1.03c-1.39-0.43-2.88-0.08-3.91,0.96c-0.81,0.81-2.13,0.93-3.1,0.28
				c-1.52-1.02-2.97-2.21-4.27-3.52c-1.3-1.31-2.5-2.75-3.53-4.28c-0.66-0.97-0.54-2.27,0.29-3.1c1.02-1.04,1.39-2.55,0.95-3.94
				l-1.06-3.28c-0.51-1.62-2-2.69-3.69-2.69H25.8c-1.21,0-2.31,0.54-3.06,1.47c-0.74,0.93-1,2.11-0.74,3.24
				c3.09,13.36,13.72,24,27.06,27.13c0.29,0.07,0.58,0.11,0.87,0.11c0.85,0,1.69-0.29,2.38-0.84c0.95-0.75,1.48-1.87,1.48-3.06
				v-3.73C53.8,44.06,52.71,42.58,51.08,42.06z M52.34,49.5c0,0.75-0.34,1.46-0.93,1.92c-0.58,0.46-1.31,0.63-2.01,0.46
				c-12.81-3-23-13.22-25.97-26.04c-0.17-0.7,0-1.43,0.45-2.01c0.47-0.58,1.17-0.92,1.93-0.92h3.69c1.06,0,1.98,0.67,2.31,1.68
				l1.06,3.28c0.28,0.87,0.05,1.81-0.6,2.47c-1.31,1.31-1.51,3.39-0.45,4.95c1.08,1.6,2.33,3.11,3.7,4.48
				c1.37,1.38,2.88,2.63,4.48,3.71c1.55,1.04,3.64,0.85,4.94-0.46c0.64-0.64,1.59-0.87,2.46-0.59l3.24,1.03
				c1.01,0.31,1.69,1.25,1.69,2.31V49.5z"/>
		</g>
	</g>
</g>
<g id="Layer_4">
</g>
<g id="Layer_5">
</g>
<g id="Layer_6">
</g>
<g id="Layer_7">
</g>
<g id="Layer_8">
</g>
<g id="Layer_9">
</g>
<g id="Layer_10">
</g>
</svg>
